<svg xmlns="http://www.w3.org/2000/svg" width="26.5" height="25" viewBox="0 0 22.199 18.524"><path fill="currentColor" d="M4.826-.02h1.969l.058 18.26H4.874zm11.196 19.294-9.845.01a6.31 6.31 0 0 1-1.206-.116 6.988 6.988 0 0 1-1.159-.357 6.321 6.321 0 0 1-1.07-.57 7.24 7.24 0 0 1-.937-.772c-.29-.29-.54-.608-.763-.946a6.37 6.37 0 0 1-.579-1.071A6.145 6.145 0 0 1 0 13.087V5.211a6.145 6.145 0 0 1 .463-2.365c.164-.376.348-.733.58-1.07.221-.339.472-.657.762-.947.29-.28.598-.54.936-.762a5.747 5.747 0 0 1 1.071-.58c.377-.154.763-.27 1.159-.347a5.628 5.628 0 0 1 1.206-.125l9.845-.01c.405 0 .81.039 1.206.116.396.077.782.203 1.158.357.377.155.734.348 1.072.57.328.231.646.482.926.772.29.29.55.598.772.936s.416.695.57 1.071a6.055 6.055 0 0 1 .473 2.375v7.866a6.056 6.056 0 0 1-.473 2.374 6.321 6.321 0 0 1-.57 1.071 5.942 5.942 0 0 1-.772.937c-.28.29-.598.54-.926.772a6.324 6.324 0 0 1-1.071.57 6.176 6.176 0 0 1-2.365.482zM6.177 1.032c-.28 0-.55.029-.82.087a4 4 0 0 0-.782.231c-.251.106-.492.242-.714.386-.232.155-.444.329-.637.522s-.367.405-.512.637A4.317 4.317 0 0 0 2.085 4.4c-.048.27-.077.54-.077.81v7.876c0 .27.029.54.077.81.058.27.135.531.241.782.106.26.232.502.386.724.145.232.319.444.512.637s.405.367.637.521a3.919 3.919 0 0 0 1.496.618c.27.058.54.087.82.087l9.845-.01a4.317 4.317 0 0 0 2.316-.714 4.61 4.61 0 0 0 .628-.521 4.61 4.61 0 0 0 .52-.627c.155-.232.28-.473.387-.724.106-.251.183-.512.231-.782.058-.27.087-.54.087-.82V5.2c0-.27-.029-.55-.087-.82a3.644 3.644 0 0 0-.231-.782 4.352 4.352 0 0 0-.386-.724 4.61 4.61 0 0 0-.521-.627 4.61 4.61 0 0 0-.628-.521 4.352 4.352 0 0 0-1.505-.628 4.525 4.525 0 0 0-.811-.077zm3.68 7.508 2.929 2.534a.958.958 0 0 1 .098 1.354.958.958 0 0 1-1.355.099L8.6 9.993a.958.958 0 0 1-.097-1.354.958.958 0 0 1 1.354-.099zm2.87-1.334-2.826 2.62a.964.964 0 0 1-1.365-.05.964.964 0 0 1 .051-1.366l2.826-2.62a.964.964 0 0 1 1.366.05.964.964 0 0 1-.052 1.366z"/></svg>
