<svg xmlns="http://www.w3.org/2000/svg" width="20" height="20" viewBox="0 0 24 24" fill="none"><path fill-rule="evenodd" clip-rule="evenodd" d="M0.853566 11.0498C3.9301 6.63986 7.93993 4.2998 11.9841 4.2998C16.7263 4.2998 20.7897 7.38605 23.178 11.0747L23.1793 11.0767C23.3565 11.3522 23.4509 11.673 23.4509 12.0005C23.4509 12.3273 23.3571 12.6472 23.1806 12.9222C20.7935 16.6596 16.7554 19.6998 11.9841 19.6998C7.16233 19.6998 3.20136 16.6654 0.820516 12.9394C0.639165 12.6577 0.545108 12.3286 0.550199 11.9935C0.555305 11.6575 0.660199 11.3301 0.851082 11.0534L0.853566 11.0498ZM2.49107 12.0246C4.64797 15.3395 8.05011 17.8002 11.9841 17.8002C15.8763 17.8002 19.3535 15.3248 21.5137 12.0017C19.3439 8.71129 15.8389 6.2002 11.9841 6.2002C8.75169 6.2002 5.30085 8.05427 2.49107 12.0246ZM7.8 11.9998C7.8 9.68021 9.68041 7.7998 12 7.7998C14.3196 7.7998 16.2 9.68021 16.2 11.9998C16.2 14.3194 14.3196 16.1998 12 16.1998C9.68041 16.1998 7.8 14.3194 7.8 11.9998ZM12 9.5332C10.6377 9.5332 9.53334 10.6376 9.53334 11.9999C9.53334 13.3622 10.6377 14.4665 12 14.4665C13.3623 14.4665 14.4667 13.3622 14.4667 11.9999C14.4667 10.6376 13.3623 9.5332 12 9.5332Z" fill="currentColor"></path></svg>
