<svg xmlns="http://www.w3.org/2000/svg" width="18" height="18" viewBox="0 0 24 24" fill="none"><path d="M11.038 3.34834C11.0732 3.1627 11.0333 2.97067 10.927 2.81447C10.8206 2.65827 10.6566 2.55071 10.471 2.51545C10.2853 2.48019 10.0933 2.52011 9.93711 2.62644C9.78092 2.73277 9.67336 2.89679 9.63809 3.08242L8.67035 8.20036L4.16496 8.20131C3.97606 8.20131 3.79489 8.27635 3.66131 8.40993C3.52773 8.54351 3.45269 8.72468 3.45269 8.91359C3.45269 9.10249 3.52773 9.28366 3.66131 9.41724C3.79489 9.55082 3.97606 9.62586 4.16496 9.62586L8.40063 9.62396L7.50221 14.3725L3.21526 14.3744C3.02636 14.3744 2.84519 14.4494 2.71161 14.583C2.57803 14.7166 2.50299 14.8977 2.50299 15.0866C2.50299 15.2756 2.57803 15.4567 2.71161 15.5903C2.84519 15.7239 3.02636 15.7989 3.21526 15.7989L7.2325 15.797L6.31414 20.6557C6.29637 20.7478 6.29696 20.8425 6.31588 20.9343C6.3348 21.0262 6.37168 21.1134 6.42439 21.191C6.47711 21.2686 6.54463 21.335 6.62307 21.3864C6.70151 21.4378 6.78934 21.4732 6.8815 21.4906C6.97367 21.508 7.06836 21.507 7.16014 21.4877C7.25192 21.4684 7.33899 21.4311 7.41634 21.3781C7.49369 21.325 7.5598 21.2572 7.61088 21.1786C7.66196 21.0999 7.697 21.0119 7.714 20.9197L8.68269 15.7961L13.8814 15.7942L12.962 20.6557C12.9443 20.7478 12.9449 20.8425 12.9638 20.9343C12.9827 21.0262 13.0196 21.1134 13.0723 21.191C13.125 21.2686 13.1925 21.335 13.271 21.3864C13.3494 21.4378 13.4372 21.4732 13.5294 21.4906C13.6216 21.508 13.7163 21.507 13.808 21.4877C13.8998 21.4684 13.9869 21.4311 14.0642 21.3781C14.1416 21.325 14.2077 21.2572 14.2588 21.1786C14.3099 21.0999 14.3449 21.0119 14.3619 20.9197L15.3316 15.7932L19.835 15.7913C20.0239 15.7913 20.2051 15.7163 20.3387 15.5827C20.4723 15.4491 20.5473 15.268 20.5473 15.079C20.5473 14.8901 20.4723 14.709 20.3387 14.5754C20.2051 14.4418 20.0239 14.3668 19.835 14.3668L15.6013 14.3687L16.4997 9.62016L20.7847 9.61826C20.9736 9.61826 21.1548 9.54322 21.2884 9.40964C21.422 9.27607 21.497 9.0949 21.497 8.90599C21.497 8.71708 21.422 8.53591 21.2884 8.40233C21.1548 8.26876 20.9736 8.19371 20.7847 8.19371L16.7684 8.19561L17.6859 3.34834C17.7211 3.1627 17.6812 2.97067 17.5749 2.81447C17.4685 2.65827 17.3045 2.55071 17.1189 2.51545C16.9333 2.48019 16.7412 2.52011 16.585 2.62644C16.4288 2.73277 16.3213 2.89679 16.286 3.08242L15.3192 8.19656L10.1205 8.19846L11.038 3.34834ZM9.85083 9.62396L15.0495 9.62111L14.1511 14.3696L8.95241 14.3715L9.85083 9.62396Z" fill="currentColor"></path><path fill-rule="evenodd" clip-rule="evenodd" d="M9.63809 3.08262C9.67336 2.89698 9.78092 2.73296 9.93711 2.62663C10.0933 2.52031 10.2853 2.48038 10.471 2.51565C10.6566 2.55091 10.8206 2.65847 10.927 2.81467C11.0333 2.97086 11.0732 3.1629 11.038 3.34853L10.1205 8.19866L15.3192 8.19676L16.286 3.08262C16.3213 2.89698 16.4288 2.73296 16.585 2.62663C16.7412 2.52031 16.9333 2.48038 17.1189 2.51565C17.3045 2.55091 17.4685 2.65847 17.5749 2.81467C17.6812 2.97086 17.7211 3.1629 17.6859 3.34853L16.7684 8.19581L20.7847 8.19391C20.9736 8.19391 21.1548 8.26895 21.2884 8.40253C21.422 8.53611 21.497 8.71728 21.497 8.90619C21.497 9.09509 21.422 9.27626 21.2884 9.40984C21.1548 9.54342 20.9736 9.61846 20.7847 9.61846L16.4997 9.62036L15.6013 14.3689L19.835 14.367C20.0239 14.367 20.2051 14.442 20.3387 14.5756C20.4723 14.7092 20.5473 14.8903 20.5473 15.0792C20.5473 15.2682 20.4723 15.4493 20.3387 15.5829C20.2051 15.7165 20.0239 15.7915 19.835 15.7915L15.3316 15.7934L14.3619 20.9199C14.3449 21.0121 14.3099 21.1001 14.2588 21.1788C14.2077 21.2574 14.1416 21.3252 14.0642 21.3783C13.9869 21.4313 13.8998 21.4686 13.808 21.4879C13.7163 21.5072 13.6216 21.5082 13.5294 21.4908C13.4372 21.4734 13.3494 21.438 13.271 21.3866C13.1925 21.3352 13.125 21.2688 13.0723 21.1912C13.0196 21.1136 12.9827 21.0264 12.9638 20.9345C12.9449 20.8427 12.9443 20.748 12.962 20.6559L13.8814 15.7944L8.68269 15.7963L7.714 20.9199C7.697 21.0121 7.66196 21.1001 7.61088 21.1788C7.5598 21.2574 7.49369 21.3252 7.41634 21.3783C7.33898 21.4313 7.25192 21.4686 7.16014 21.4879C7.06836 21.5072 6.97367 21.5082 6.8815 21.4908C6.78934 21.4734 6.70151 21.438 6.62307 21.3866C6.54463 21.3352 6.47711 21.2688 6.42439 21.1912C6.37168 21.1136 6.3348 21.0264 6.31588 20.9345C6.29696 20.8427 6.29637 20.748 6.31414 20.6559L7.2325 15.7972L3.21526 15.7991C3.02636 15.7991 2.84519 15.7241 2.71161 15.5905C2.57803 15.4569 2.50299 15.2757 2.50299 15.0868C2.50299 14.8979 2.57803 14.7168 2.71161 14.5832C2.84519 14.4496 3.02636 14.3746 3.21526 14.3746L7.50221 14.3727L8.40063 9.62416L4.16496 9.62606C3.97606 9.62606 3.79489 9.55102 3.66131 9.41744C3.52773 9.28386 3.45269 9.10269 3.45269 8.91378C3.45269 8.72488 3.52773 8.54371 3.66131 8.41013C3.79489 8.27655 3.97606 8.20151 4.16496 8.20151L8.67035 8.20056L9.63809 3.08262ZM8.42175 7.90061L9.34332 3.02688C9.39343 2.76308 9.54633 2.52974 9.7683 2.37864C9.99027 2.22754 10.2632 2.1708 10.527 2.22092C10.7908 2.27103 11.0239 2.42388 11.175 2.64585C11.326 2.86775 11.3828 3.14056 11.3327 3.40429M11.3327 3.40429L10.4826 7.89853L15.0706 7.89685L15.9912 3.02689C16.0413 2.76309 16.1942 2.52974 16.4162 2.37864C16.6382 2.22754 16.9111 2.1708 17.1749 2.22092C17.4387 2.27103 17.6718 2.42388 17.8229 2.64585C17.974 2.86782 18.0307 3.14072 17.9806 3.40452L17.1306 7.89564L20.7846 7.89391C21.0531 7.89391 21.3107 8.00056 21.5005 8.1904C21.6904 8.38024 21.797 8.63771 21.797 8.90619C21.797 9.17466 21.6904 9.43213 21.5005 9.62197C21.3107 9.81178 21.0533 9.91843 20.7849 9.91846L16.7483 9.92025L15.9634 14.0687L19.8349 14.067C20.1034 14.067 20.361 14.1736 20.5508 14.3635C20.7407 14.5533 20.8473 14.8108 20.8473 15.0792C20.8473 15.3477 20.7407 15.6052 20.5508 15.795C20.361 15.9848 20.1036 16.0915 19.8352 16.0915L15.5801 16.0933L14.6569 20.9743C14.6327 21.1051 14.5829 21.2306 14.5104 21.3422C14.4378 21.454 14.3438 21.5503 14.2339 21.6257C14.124 21.7011 14.0002 21.754 13.8698 21.7814C13.7394 21.8089 13.6048 21.8103 13.4738 21.7856C13.3428 21.7609 13.218 21.7106 13.1065 21.6375C12.995 21.5644 12.8991 21.4701 12.8242 21.3598C12.7493 21.2496 12.6968 21.1256 12.67 20.9951C12.6431 20.8648 12.6422 20.7305 12.6673 20.5998L13.5193 16.0945L8.93131 16.0962L8.00903 20.9743C7.98483 21.1051 7.93493 21.2306 7.86248 21.3422C7.78989 21.454 7.69593 21.5503 7.586 21.6257C7.47607 21.7011 7.35234 21.754 7.2219 21.7814C7.09146 21.8089 6.95689 21.8103 6.8259 21.7856C6.69492 21.7609 6.5701 21.7106 6.45862 21.6375C6.34714 21.5644 6.25118 21.4701 6.17626 21.3598C6.10134 21.2496 6.04894 21.1256 6.02205 20.9951C5.9952 20.8647 5.99432 20.7303 6.01946 20.5996L6.87045 16.0974L3.2154 16.0991C2.94693 16.0991 2.68931 15.9925 2.49948 15.8026C2.30964 15.6128 2.20299 15.3553 2.20299 15.0868C2.20299 14.8184 2.30964 14.5609 2.49948 14.3711C2.68928 14.1812 2.94671 14.0746 3.21513 14.0746L7.25363 14.0728L8.03852 9.92432L4.1651 9.92606C3.89663 9.92606 3.63902 9.81941 3.44918 9.62957C3.25934 9.43973 3.15269 9.18226 3.15269 8.91378C3.15269 8.64531 3.25934 8.38784 3.44918 8.198C3.639 8.00817 3.89645 7.90152 4.1649 7.90151L8.42175 7.90061M9.85065 9.62416L8.95241 14.3717L14.1511 14.3698L15.0495 9.62131L9.85065 9.62416ZM10.0992 9.92402L9.31452 14.0716L13.9025 14.0699L14.6874 9.92151L10.0992 9.92402Z" fill="currentColor"></path></svg>
