<svg xmlns="http://www.w3.org/2000/svg" width="18" height="18" viewBox="0 0 24 24" fill="none"><path d="M12.9819 14.7816C12.9819 14.2394 12.5423 13.7998 12.0001 13.7998C11.4578 13.7998 11.0182 14.2394 11.0182 14.7816V17.0289C11.0182 17.5711 11.4578 18.0107 12.0001 18.0107C12.5423 18.0107 12.9819 17.5711 12.9819 17.0289V14.7816Z" fill="currentColor"></path><path fill-rule="evenodd" clip-rule="evenodd" d="M7.00012 6.51953V9.52051H6.42405C4.54628 9.52051 3.02405 11.0427 3.02405 12.9205V19.1205C3.02405 20.9983 4.54628 22.5205 6.42405 22.5205H17.576C19.4538 22.5205 20.976 20.9983 20.976 19.1205V12.9205C20.976 11.0427 19.4538 9.52051 17.576 9.52051H17.0001V6.51953C17.0001 3.75811 14.7615 1.51953 12.0001 1.51953C9.2387 1.51953 7.00012 3.75811 7.00012 6.51953ZM12.0001 3.51953C10.3433 3.51953 9.00012 4.86268 9.00012 6.51953V9.52051H15.0001V6.51953C15.0001 4.86268 13.657 3.51953 12.0001 3.51953ZM17.576 11.5205H6.42405C5.65085 11.5205 5.02405 12.1473 5.02405 12.9205V19.1205C5.02405 19.8937 5.65085 20.5205 6.42405 20.5205H17.576C18.3492 20.5205 18.976 19.8937 18.976 19.1205V12.9205C18.976 12.1473 18.3492 11.5205 17.576 11.5205Z" fill="currentColor"></path></svg>
