<svg width="539.65" height="99.884" preserveAspectRatio="xMidYMid" version="1.1" viewBox="0 0 539.65 99.884" xml:space="preserve" xmlns="http://www.w3.org/2000/svg"><g transform="matrix(2.5613 0 0 2.5613 -91.644 -6.4063)" fill="currentColor"><path transform="matrix(1.3232 0 0 1.3232 -42.649 -1.9344)" d="m65.249 25.877h3.5787v-2.0827c1.672 1.7893 3.2267 2.464 5.632 2.464 2.5227 0 4.5173-0.93867 6.0133-2.8453 1.232-1.584 1.9067-3.608 1.9067-5.7787 0-4.928-3.4907-8.5947-8.184-8.5947-2.1413 0-3.52 0.58667-5.0453 2.0827v-6.9227h-3.9013zm8.3893-13.259c2.7867 0 4.8107 2.112 4.8107 5.0453 0 2.992-1.936 5.016-4.7227 5.016-2.8453 0-4.8107-2.0827-4.8107-5.0453 0-2.9333 1.9653-5.016 4.7227-5.016zm10.971 13.259h3.9013v-16.251h-3.9013zm0-18.011h3.9013v-3.6667h-3.9013zm7.6267 18.011h3.9013v-12.701h2.3467v-3.5493h-2.3467v-5.4267h-3.9013v5.4267h-1.9067v3.5493h1.9067zm7.2453-6.1893c0.14667 1.7013 0.528 2.7867 1.408 3.96 1.2907 1.6427 3.4027 2.6107 5.72 2.6107 3.9013 0 6.9227-3.0213 6.9227-6.952 0-1.8187-0.64533-3.344-1.936-4.5173-0.85067-0.792-1.5253-1.144-3.6667-1.9653-2.0533-0.76267-2.112-0.792-2.4053-0.968-0.792-0.49867-1.2027-1.1733-1.2027-1.9653 0-1.2907 0.90933-2.2 2.2293-2.2 1.3493 0 2.1707 0.82133 2.288 2.288h4.1653c-0.088-1.6427-0.46933-2.7573-1.3493-3.8427-1.1733-1.4667-3.0507-2.3173-5.0747-2.3173-3.52 0-6.3067 2.728-6.3067 6.16 0 2.728 1.584 4.8107 4.5173 5.896 2.904 1.0853 3.1093 1.1733 3.7547 1.672 0.64533 0.528 0.99733 1.2907 0.99733 2.2 0 1.5547-1.2027 2.64-2.9333 2.64-1.7893 0-2.7573-0.88-2.9333-2.6987zm18.011 11.616h4.1947l9.3867-21.677h-4.5173l-3.9013 10.531-3.608-10.531h-4.4587l5.9546 14.725zm15.283-5.4267h3.9013v-7.656c0-2.1707 0.14666-3.1093 0.64533-3.9013 0.616-0.968 1.6133-1.496 2.8747-1.496 1.0267 0 1.8187 0.352 2.3467 1.0267 0.528 0.704 0.76266 1.9067 0.76266 4.0773v7.9493h3.9013v-8.712c0-2.904-0.29333-4.312-1.1733-5.5733-1.056-1.5253-2.816-2.3467-5.0747-2.3467-1.8773 0-3.1387 0.528-4.576 1.936v-1.5547h-3.608zm33.704-6.3947c0.11733-0.58667 0.14667-0.93867 0.14667-1.5253 0-5.016-3.5493-8.712-8.3893-8.712-4.7813 0-8.5653 3.784-8.5653 8.5653 0 4.752 3.8427 8.448 8.8 8.448 2.6693 0 4.752-0.968 6.4533-2.9333 0.616-0.76267 1.0267-1.4373 1.2907-2.2587h-4.2533c-0.99733 1.1733-1.9653 1.6133-3.5787 1.6133-2.3173 0-4.0187-1.232-4.488-3.1973zm-12.701-3.432c0.616-2.112 2.2-3.2267 4.5173-3.2267 2.4053 0 3.9893 1.144 4.488 3.2267zm15.371 9.8267h3.9013v-9.0347c-0.088-2.4053 1.144-3.7547 3.4907-3.8427v-3.7547h-0.29333c-1.672 0-2.4933 0.46933-3.52 1.9653v-1.584h-3.5787zm21.648-16.251v2.0533c-1.232-1.6427-2.9627-2.4347-5.3093-2.4347-4.6053 0-8.008 3.5787-8.008 8.3893 0 5.016 3.344 8.624 7.9787 8.624 2.288 0 3.8133-0.73333 5.3387-2.5227-0.14667 3.4907-1.6427 5.192-4.5467 5.192-1.8187 0-2.9333-0.46933-4.0773-1.7307h-4.4293c1.32 3.256 4.3707 5.1627 8.36 5.1627 2.9333 0 5.2507-1.0267 6.776-2.9627 1.144-1.496 1.6427-3.4907 1.6427-6.6v-13.171zm-4.8693 3.1973c2.7867 0 4.6933 1.9947 4.6933 4.9867 0 2.9333-1.8187 4.8693-4.6347 4.8693-2.7867 0-4.576-1.9067-4.576-4.8693 0-2.992 1.7893-4.9867 4.5173-4.9867zm13.024 18.48h4.1947l9.3867-21.677h-4.5173l-3.9013 10.531-3.608-10.531h-4.4587l5.9547 14.725z" fill="currentColor" fill-opacity=".98513" stroke-width="15" style="white-space:pre" aria-label="bitSynergy"/></g></svg>
