<svg width="241" height="44" fill="currentColor" version="1.1" viewBox="0 0 58081 1936" xml:space="preserve" xmlns="http://www.w3.org/2000/svg"><g transform="matrix(242.49,0,0,242.49,18.976,-4366.8)" fill="currentColor"><path transform="matrix(1.3232 0 0 1.3232 -42.649 -1.9344)" d="m65.249 25.877h3.5787v-2.0827c1.672 1.7893 3.2267 2.464 5.632 2.464 2.5227 0 4.5173-0.93867 6.0133-2.8453 1.232-1.584 1.9067-3.608 1.9067-5.7787 0-4.928-3.4907-8.5947-8.184-8.5947-2.1413 0-3.52 0.58667-5.0453 2.0827v-6.9227h-3.9013zm8.3893-13.259c2.7867 0 4.8107 2.112 4.8107 5.0453 0 2.992-1.936 5.016-4.7227 5.016-2.8453 0-4.8107-2.0827-4.8107-5.0453 0-2.9333 1.9653-5.016 4.7227-5.016zm10.971 13.259h3.9013v-16.251h-3.9013zm0-18.011h3.9013v-3.6667h-3.9013zm7.6267 18.011h3.9013v-12.701h2.3467v-3.5493h-2.3467v-5.4267h-3.9013v5.4267h-1.9067v3.5493h1.9067zm7.2453-6.1893c0.14667 1.7013 0.528 2.7867 1.408 3.96 1.2907 1.6427 3.4027 2.6107 5.72 2.6107 3.9013 0 6.9227-3.0213 6.9227-6.952 0-1.8187-0.64533-3.344-1.936-4.5173-0.85067-0.792-1.5253-1.144-3.6667-1.9653-2.0533-0.76267-2.112-0.792-2.4053-0.968-0.792-0.49867-1.2027-1.1733-1.2027-1.9653 0-1.2907 0.90933-2.2 2.2293-2.2 1.3493 0 2.1707 0.82133 2.288 2.288h4.1653c-0.088-1.6427-0.46933-2.7573-1.3493-3.8427-1.1733-1.4667-3.0507-2.3173-5.0747-2.3173-3.52 0-6.3067 2.728-6.3067 6.16 0 2.728 1.584 4.8107 4.5173 5.896 2.904 1.0853 3.1093 1.1733 3.7547 1.672 0.64533 0.528 0.99733 1.2907 0.99733 2.2 0 1.5547-1.2027 2.64-2.9333 2.64-1.7893 0-2.7573-0.88-2.9333-2.6987zm18.011 11.616h4.1947l9.3867-21.677h-4.5173l-3.9013 10.531-3.608-10.531h-4.4587l5.9546 14.725zm15.283-5.4267h3.9013v-7.656c0-2.1707 0.14666-3.1093 0.64533-3.9013 0.616-0.968 1.6133-1.496 2.8747-1.496 1.0267 0 1.8187 0.352 2.3467 1.0267 0.528 0.704 0.76266 1.9067 0.76266 4.0773v7.9493h3.9013v-8.712c0-2.904-0.29333-4.312-1.1733-5.5733-1.056-1.5253-2.816-2.3467-5.0747-2.3467-1.8773 0-3.1387 0.528-4.576 1.936v-1.5547h-3.608zm33.704-6.3947c0.11733-0.58667 0.14667-0.93867 0.14667-1.5253 0-5.016-3.5493-8.712-8.3893-8.712-4.7813 0-8.5653 3.784-8.5653 8.5653 0 4.752 3.8427 8.448 8.8 8.448 2.6693 0 4.752-0.968 6.4533-2.9333 0.616-0.76267 1.0267-1.4373 1.2907-2.2587h-4.2533c-0.99733 1.1733-1.9653 1.6133-3.5787 1.6133-2.3173 0-4.0187-1.232-4.488-3.1973zm-12.701-3.432c0.616-2.112 2.2-3.2267 4.5173-3.2267 2.4053 0 3.9893 1.144 4.488 3.2267zm15.371 9.8267h3.9013v-9.0347c-0.088-2.4053 1.144-3.7547 3.4907-3.8427v-3.7547h-0.29333c-1.672 0-2.4933 0.46933-3.52 1.9653v-1.584h-3.5787zm21.648-16.251v2.0533c-1.232-1.6427-2.9627-2.4347-5.3093-2.4347-4.6053 0-8.008 3.5787-8.008 8.3893 0 5.016 3.344 8.624 7.9787 8.624 2.288 0 3.8133-0.73333 5.3387-2.5227-0.14667 3.4907-1.6427 5.192-4.5467 5.192-1.8187 0-2.9333-0.46933-4.0773-1.7307h-4.4293c1.32 3.256 4.3707 5.1627 8.36 5.1627 2.9333 0 5.2507-1.0267 6.776-2.9627 1.144-1.496 1.6427-3.4907 1.6427-6.6v-13.171zm-4.8693 3.1973c2.7867 0 4.6933 1.9947 4.6933 4.9867 0 2.9333-1.8187 4.8693-4.6347 4.8693-2.7867 0-4.576-1.9067-4.576-4.8693 0-2.992 1.7893-4.9867 4.5173-4.9867zm13.024 18.48h4.1947l9.3867-21.677h-4.5173l-3.9013 10.531-3.608-10.531h-4.4587l5.9547 14.725z" fill="currentColor" fill-opacity=".98513" stroke-width="15" style="white-space:pre" aria-label="bitSynergy"/><path d="m14.124 42.785c0.15058-1.1423 0.45666-1.968 1.1566-3.1202 0.32285-0.53148 0.77852-1.3797 1.0126-1.8849l0.42561-0.91862 0.48016 0.05037c1.6556 0.17366 3.678-3.4047 4.0867-5.7435 0.10131-0.61514 0.33218-1.5486 0.51306-2.0743 0.18086-0.52568 0.2825-0.9558 0.22585-0.9558-0.16626 0-1.572 0.93389-1.572 0.67397 0-1.3955 3.3783-4.5684 3.2194-4.5684-0.66866 0-2.6018 1.1853-2.6149 1.1853-1.106 0 3.6467-3.3316 3.6221-5.7094l-0.0066-0.64042-0.22211 0.50969c-0.26001 0.59664-1.3943 1.7079-3.089 3.0262-2.9364 2.2843-2.5998 4.5612-2.5383 4.8683 0.05341 0.26703 0.03437 0.4855-0.04228 0.4855-0.44517 0-0.89606-2.1701-1.1509-3.6405-0.24402 1.2023-0.19451 2.3877 0.02225 3.5907 0.65949 3.5015-0.07808 4.0427-0.07808 4.4085 0 0.24466 0.89724-0.76388 1.0906-1.2258l0.21258-0.50798 0.12528 0.71965c0.2701 1.5515-0.353 3.0152-1.6561 3.8899-1.3729 0.92169-3.0057 1.1553-4.3406 0.62117-0.78492-0.31407-0.89288-0.54285-0.21509-0.45586 0.25611 0.03287 1.0372-0.04828 1.7356-0.18034l1.27-0.2401-1.7524-0.01832c-1.6863 0.04856-3.4415-0.26792-3.5815-2.2786 0.5593 0.5562 1.2241 0.98992 1.9684 1.2443 0.06743 0-0.03356-0.17144-0.22442-0.38099-0.77658-0.85262-0.9516-1.9127-0.46966-2.8447 0.27949-0.54047 0.23486-0.59422-0.26947-0.32429-0.52538 0.28118-0.38251-0.09192 0.24677-0.64444 0.6778-0.59513 2.019-0.96168 3.0808-0.84201 0.41109 0.04634 0.74743 0.05439 0.74743 0.01789-0.50518-0.5211-1.2218-0.73762-1.9352-0.73872 0.64679-0.72924 1.7201-0.66889 2.6197-0.71855l-0.20397-0.24576c-0.61249-0.56541-1.3976-0.8983-2.2264-0.8983l0.64008-0.70729c-0.06752-1.6257-0.0025-3.263-0.17224-4.8827-0.969-0.74345-1.4194-2.0021-2.4165-2.7183l-0.56188-0.29709 0.30789-0.09452c0.16934-0.05198 0.59179-0.02912 0.93878 0.05083l0.63091 0.14535-0.15637-0.29218c-0.16618-0.31052-2.1608-2.7803-5.3254-2.3057-0.72495 0.10872-1.1031 0.43414-0.50445 0.43414 0.37432 0 1.4225 0.51332 1.4225 0.6966 0 0.2142-2.4312 0.09778-2.5906 0.25718-0.20537 0.20537 1.457 1.0782 0.29629 1.0782-1.1177 0.0357-1.6201 0.95554-2.1028 1.8144 0.44805-0.10954 2.0239-0.89386 1.4511 0.07493-0.60949 0.87017-0.26888 1.8398 1.2527 3.5661l0.93129 1.0566-0.67731-0.40711c-0.59755-0.33429-3.3536-2.3493-3.1381-1.6322 0.091566 0.24083 0.092677 0.4764 0.025181 0.43789-2.8804-1.6441-2.5896-3.664-1.1962-5.7693 0.19412-0.27262 0.30699-0.4957 0.25081-0.4957-0.20511 0-1.0377 0.58338-1.6743 1.1732l-0.65278 0.60475 0.1144-0.59266c0.30266-1.568 0.96797-3.1342 2.3191-5.4596l0.66336-1.1416c-1.127-2.1058-1.0706-6.7757-0.49286-6.7757 0.29336 0 1.9226 1.6603 2.3158 2.3601 0.21262 0.37831 0.34427 0.68784 0.29255 0.68784-0.051719 0-0.44343-0.26669-0.87044-0.59266-0.42701-0.32595-0.84823-0.59266-0.93598-0.59266-0.39347 0 0.40806 2.318 1.1851 3.4273l0.64463 0.92025c-0.34643 0.62443-0.61757 1.2776-0.83314 1.9578 1.2376-0.65964 2.2327-1.6739 3.2528-2.6189 0.12241-1.7902-0.91574-3.2931-1.9964-4.6348-0.83625-0.99769-2.5269-2.7769-3.9491-2.7769-0.69524 1.2085-0.764 2.532-0.79357 3.8945-0.037128 1.2573 0.00948 2.705 0.10357 3.2172 0.094094 0.51223 0.14082 0.96194 0.10383 0.99943-0.036989 0.03746-0.2544-0.34352-0.48315-0.84663-1.1065-2.4338-0.9826-5.6973 0.31344-8.2552 0.52724-1.0404 0.67837-1.0652 2.2972-0.37635 4.7629 2.0268 7.0759 6.4361 7.4383 6.3334 1.9385-0.36565 3.9256-0.42269 5.8557 0.027675 0.2634 0.069501 0.46765-0.10213 0.91911-0.77234 1.7174-2.5495 6.2306-6.0843 8.2306-6.0843h0.43603l0.40677 0.88897c1.2175 2.4935 1.2829 5.3561 0.73436 8.0009-0.54854 2.6447-1.6856 4.5525 0.02796 6.9338 0.78284 1.0878 1.0616 2.2604 1.129 2.752l0.11045 0.80581-0.5576-0.4692c-0.6571-0.5529-0.80376-0.50082-0.46158 0.16398 0.93814 1.8226 1.8682 5.9846 1.3374 5.9846-0.42235-0.45093-0.78432-1.0798-1.2066-1.5954 0.25347 3.0048 0.12385 6.1287-1.7713 8.6225l-0.43274 0.50798c-0.0043-0.79978-0.0517-3.9794-0.53421-3.9794-0.08541 0-0.1553 0.32688-0.1553 0.7264 0 2.0166-1.0738 4.2561-3.1429 6.5547-2.1131 2.3475-2.1115 2.8751-2.318 2.8773-0.18987-0.45593-0.127-1.0207-0.127-1.5211-1.9772 1.5658-4.3073 2.8633-5.5116 5.1628l-0.42072 0.84663zm1.2486-12.247c0.45643 0.04353 0.6134 0.0088 0.49468-0.10962-0.72412-0.20393-3.7669-0.49164-3.0909 0.47572 0.52276 0.74808 1.4014-0.48004 2.5962-0.36609zm6.4077-9.6767c0.45715-0.47299 0.70126-0.99451 0.69914-1.2739l-0.0038-0.50798c-0.22491 0.41439-0.50142 0.77291-0.861 1.0759l-0.3153 0.19691v-0.25543c0-0.40768-0.29196-0.29521-0.40525 0.15613-0.1464 0.5833-1.9865 1.7617-2.0919 2.082-0.05771 0.17535 2.521-1.0007 2.9781-1.4737zm-1.8066-0.45351c0.17031-0.15413 0.30966-0.42322 0.30966-0.59797 0-0.3857-0.45768-0.59448-0.72257-0.32958-0.14286 0.14286-0.11971 0.19181 0.09073 0.19181 0.17476 0 0.24728 0.0919 0.1901 0.2409-0.1293 0.33694-0.57545 0.47686-0.83462 0.26178-0.15122-0.1255-0.25088-0.12639-0.32719-0.0029-0.32262 0.522 0.75972 0.71938 1.2939 0.23597zm-2.1059-2.2335c0.27283-0.34035 0.90891-0.86073 1.4135-1.1564 1.3936-0.81661 1.8121-1.1962 1.9348-1.7547 0.23496-1.0697-0.77048-1.9031-1.3392-2.2796 0.29044 0.60809 0.44543 1.2309 0.32483 1.9018l-0.11994 0.46879-0.72416-1.5239-0.11204 0.7784c-0.14339 0.99617-0.46337 1.6023-1.2708 2.4071-0.66021 0.65805-0.9243 0.61742-0.55805-0.08586l0.20329-0.39036-0.4482 0.4123c-0.62155 0.57178-0.87294 1.5814-0.61237 2.4596 0.35492 1.1962 0.57625 1.2818 0.70176 0.27117 0.07656-0.61647 0.26272-1.0794 0.60654-1.5083zm2.1257 0.21983c0.53902-0.25357 1.0897-0.6176 1.2237-0.80896 0.27435-0.39168 0.20194-0.58626-0.12542-0.33697-0.11866 0.09037-0.57413 0.29666-1.0122 0.45844-0.43808 0.1618-1.0285 0.55851-1.3123 0.8817-0.59752 0.68053-0.69797 1.1423-0.13488 0.62014 0.20954-0.19432 0.822-0.56078 1.361-0.81434zm6.9581-7.7848c0.52193-1.0659 0.57416-1.5272 0.10507-0.92752-0.40825 0.52193-0.41867 0.42034-0.05426-0.52902 0.41606-1.0839 0.38695-4.4718-0.04913-5.7216-0.17596-0.5043-0.45214-0.99849-0.6137-1.0982-0.4449-0.2745-1.3083 0.26885-2.9278 1.8425-1.5217 1.4787-2.7183 3.1765-2.8923 4.1037-0.28201 2.0207 1.4222 3.1583 2.9898 3.9525l-0.51226-0.9077c-0.28174-0.49922-0.51226-0.95019-0.51226-1.0022 0-0.05195 0.27483-0.14602 0.61074-0.20903 0.3359-0.06302 0.81214-0.19224 1.0583-0.28717l0.44756-0.1726c-0.7264-0.2763-2.1326-0.49846-2.3706-0.99822 0.18626-0.07402 0.58008-0.13995 0.87514-0.1465 1.0541-0.02339 1.154-0.18664 0.4139-0.67659l-0.68061-0.45059c0.82654-1.3443 1.7008-2.9934 3.0951-3.785 0.05428 0.052204 0.17086 0.60464 0.25909 1.2276 0.17319 1.223 0.03079 2.6842-0.39915 4.0958-0.32712 1.074-0.32317 1.1044 0.07713 0.59266 0.26209-0.33507 0.33191-0.36289 0.33489-0.13344 0.0033 0.25569-0.57106 2.166-0.93109 3.0967-0.27407 0.70847 1.2423-0.97968 1.6764-1.8664zm-16.814 13.65c0.0308-0.74838 0.45029-1.3696 0.81661-1.9947-1.0107-1.4429-1.9708-1.0502-2.5851-1.9877-0.16653-0.25416-0.53527-0.55988-0.81942-0.67932-0.94951-0.50305 1.1492-0.80247 1.6395-0.93181l0.7024 0.34002c1.0666 0.51632 1.9255 1.9177 1.9255 3.1417 0 0.46321-0.13342 0.71248-0.61992 1.1582-0.34096 0.31236-0.71574 0.7847-0.83287 1.0497l-0.21296 0.48175zm0.13337-3.7978c0.26472-0.31896 0.04891-0.46962-0.33197-0.23176l-0.31766 0.19839-0.29906-0.31332c-0.21857-0.22899-0.24209-0.33444-0.0874-0.3918 0.33351-0.12365 0.24689-0.38892-0.127-0.38892-0.25802 0-0.33866 0.11288-0.33866 0.47413 0 0.26076 0.09144 0.56556 0.20319 0.67731 0.27282 0.27283 1.0643 0.25817 1.2986-0.02404z" stroke-width=".52917"/></g></svg>
