<svg xmlns="http://www.w3.org/2000/svg" width="20" height="20" viewBox="0 0 1024 1024"><path fill="currentColor" d="M725.333 1024H298.667a128 128 0 0 1-128-128V128a128 128 0 0 1 128-128h426.666a128 128 0 0 1 128 128v768a128 128 0 0 1-128 128zM298.667 85.333A42.667 42.667 0 0 0 256 128v768a42.667 42.667 0 0 0 42.667 42.667h426.666A42.667 42.667 0 0 0 768 896V128a42.667 42.667 0 0 0-42.667-42.667z"/><path fill="currentColor" d="M469.333 853.333a42.667 42.667 0 1 0 85.334 0 42.667 42.667 0 1 0-85.334 0zm85.334-640h-85.334a42.667 42.667 0 0 1 0-85.333h85.334a42.667 42.667 0 0 1 0 85.333z"/></svg>
