<svg  width="26.5" height="24.208" version="1.1" viewBox="0 0 22.199 17.937" xmlns="http://www.w3.org/2000/svg"><path d="m11.53 8.3258-2.929 2.534a0.958 0.958 0 0 0-0.098 1.354 0.958 0.958 0 0 0 1.355 0.099l2.929-2.534a0.958 0.958 0 0 0 0.097-1.354 0.958 0.958 0 0 0-1.354-0.099zm-2.87-1.334 2.826 2.62a0.964 0.964 0 0 0 1.365-0.05 0.964 0.964 0 0 0-0.051-1.366l-2.826-2.62a0.964 0.964 0 0 0-1.366 0.05 0.964 0.964 0 0 0 0.052 1.366z" fill="currentColor"/>
 <path d="m4.8261-0.23423h1.969l0.058 18.26h-1.979zm11.196 19.294-9.845 0.01a6.31 6.31 0 0 1-1.206-0.116 6.988 6.988 0 0 1-1.159-0.357 6.321 6.321 0 0 1-1.07-0.57 7.24 7.24 0 0 1-0.937-0.772c-0.29-0.29-0.54-0.608-0.763-0.946a6.37 6.37 0 0 1-0.579-1.071 6.145 6.145 0 0 1-0.463-2.365v-7.876a6.145 6.145 0 0 1 0.463-2.365c0.164-0.376 0.348-0.733 0.58-1.07 0.221-0.339 0.472-0.657 0.762-0.947 0.29-0.28 0.598-0.54 0.936-0.762a5.747 5.747 0 0 1 1.071-0.58c0.377-0.154 0.763-0.27 1.159-0.347a5.628 5.628 0 0 1 1.206-0.125l9.845-0.01c0.405 0 0.81 0.039 1.206 0.116s0.782 0.203 1.158 0.357c0.377 0.155 0.734 0.348 1.072 0.57 0.328 0.231 0.646 0.482 0.926 0.772 0.29 0.29 0.55 0.598 0.772 0.936s0.416 0.695 0.57 1.071a6.055 6.055 0 0 1 0.473 2.375v7.866a6.056 6.056 0 0 1-0.473 2.374 6.321 6.321 0 0 1-0.57 1.071 5.942 5.942 0 0 1-0.772 0.937c-0.28 0.29-0.598 0.54-0.926 0.772a6.324 6.324 0 0 1-1.071 0.57 6.176 6.176 0 0 1-2.365 0.482zm-9.845-18.242c-0.28 0-0.55 0.029-0.82 0.087a4 4 0 0 0-0.782 0.231c-0.251 0.106-0.492 0.242-0.714 0.386-0.232 0.155-0.444 0.329-0.637 0.522s-0.367 0.405-0.512 0.637a4.317 4.317 0 0 0-0.627 1.505c-0.048 0.27-0.077 0.54-0.077 0.81v7.876c0 0.27 0.029 0.54 0.077 0.81 0.058 0.27 0.135 0.531 0.241 0.782 0.106 0.26 0.232 0.502 0.386 0.724 0.145 0.232 0.319 0.444 0.512 0.637s0.405 0.367 0.637 0.521a3.919 3.919 0 0 0 1.496 0.618c0.27 0.058 0.54 0.087 0.82 0.087l9.845-0.01a4.317 4.317 0 0 0 2.316-0.714 4.61 4.61 0 0 0 0.628-0.521 4.61 4.61 0 0 0 0.52-0.627c0.155-0.232 0.28-0.473 0.387-0.724 0.106-0.251 0.183-0.512 0.231-0.782 0.058-0.27 0.087-0.54 0.087-0.82v-7.867c0-0.27-0.029-0.55-0.087-0.82a3.644 3.644 0 0 0-0.231-0.782 4.352 4.352 0 0 0-0.386-0.724 4.61 4.61 0 0 0-0.521-0.627 4.61 4.61 0 0 0-0.628-0.521 4.352 4.352 0 0 0-1.505-0.628 4.525 4.525 0 0 0-0.811-0.077z" fill="currentColor"/>
</svg>
