<svg xmlns="http://www.w3.org/2000/svg" width="18" height="18" viewBox="0 0 24 24" fill="none"><path fill-rule="evenodd" clip-rule="evenodd" d="M4.97671 3.2998C3.0897 3.2998 1.55998 4.85786 1.55998 6.77981V17.2198C1.55998 19.1418 3.0897 20.6998 4.97671 20.6998H19.0233C20.9103 20.6998 22.44 19.1418 22.44 17.2198V6.7798C22.44 4.85785 20.9103 3.2998 19.0233 3.2998H4.97671ZM4.97671 5.23314C4.13804 5.23314 3.45816 5.92561 3.45816 6.77981V7.18001L12.0001 11.8068L20.5418 7.18021V6.7798C20.5418 5.9256 19.8619 5.23314 19.0233 5.23314H4.97671ZM20.5418 9.50025L12.4962 13.8582C12.3427 13.9434 12.1689 13.9881 11.9927 13.987C11.8501 13.9861 11.7059 13.9552 11.5695 13.8915C11.5467 13.8809 11.5243 13.8695 11.5022 13.8572L3.45816 9.50005V17.2198C3.45816 18.074 4.13804 18.7665 4.97671 18.7665H19.0233C19.8619 18.7665 20.5418 18.074 20.5418 17.2198V9.50025Z" fill="currentColor"></path></svg>
