<svg xmlns="http://www.w3.org/2000/svg" width="14" height="16" fill="none"><path fill="currentColor" d="M7 16c-.595 0-1.077-.462-1.077-1.032V1.032C5.923.462 6.405 0 7 0s1.077.462 1.077 1.032v13.936C8.077 15.538 7.595 16 7 16z"/><path fill="currentColor" d="M.315 7.44a1.002 1.002 0 0 1 0-1.46L6.238.302a1.11 1.11 0 0 1 1.523 0 1.002 1.002 0 0 1 0 1.46L1.838 7.44a1.11 1.11 0 0 1-1.523 0z"/><path fill="currentColor" d="M13.685 7.44a1.11 1.11 0 0 1-1.523 0L6.238 1.762a1.002 1.002 0 0 1 0-1.46 1.11 1.11 0 0 1 1.523 0l5.924 5.678c.42.403.42 1.056 0 1.46z"/></svg>