<svg fill="#298a00" width="115" height="115" version="1.1" viewBox="0 0 115.2 115.2" xmlns="http://www.w3.org/2000/svg">
 <path d="m54.694 112.43c0.39725-3.0135 1.2047-5.1919 3.0511-8.2314 0.85171-1.4021 2.0538-3.6398 2.6714-4.9726l1.1228-2.4234 1.2667 0.13287c4.3675 0.45812 9.7028-8.9819 10.781-15.152 0.26727-1.6228 0.87633-4.0853 1.3535-5.4721 0.47714-1.3868 0.74525-2.5215 0.59581-2.5215-0.43862 0-4.1472 2.4637-4.1472 1.778 0-3.6814 8.9123-12.052 8.4931-12.052-1.764 0-6.8639 3.1269-6.8984 3.1269-2.9177 0 9.6203-8.7892 9.5554-15.062l-0.01749-1.6895-0.58595 1.3446c-0.68592 1.574-3.6784 4.5057-8.1492 7.9835-7.7466 6.0261-6.8584 12.033-6.6963 12.843 0.14089 0.70445 0.09069 1.2808-0.11154 1.2808-1.1744 0-2.3639-5.725-3.0363-9.6041-0.64375 3.1718-0.51314 6.2989 0.05869 9.4725 1.7398 9.2373-0.206 10.665-0.206 11.63 0 0.64544 2.367-2.0152 2.877-3.2339l0.56082-1.3401 0.3305 1.8985c0.71256 4.0931-0.93126 7.9543-4.369 10.262-3.6218 2.4315-7.9294 3.0479-11.451 1.6387-2.0707-0.82855-2.3555-1.4321-0.56742-1.2026 0.67564 0.08672 2.7361-0.12737 4.5787-0.47574l3.3503-0.63341-4.6229-0.04833c-4.4487 0.12811-9.0791-0.70681-9.4483-6.0112 1.4755 1.4673 3.2293 2.6115 5.1928 3.2827 0.17787 0-0.08854-0.45229-0.59205-1.0051-2.0487-2.2493-2.5104-5.0458-1.239-7.5045 0.73733-1.4258 0.61957-1.5676-0.71089-0.85551-1.386 0.74177-1.0091-0.24248 0.65099-1.7001 1.7881-1.57 5.3263-2.537 8.1275-2.2213 1.0845 0.12223 1.9718 0.14348 1.9718 0.0472-1.3327-1.3747-3.2231-1.9459-5.1052-1.9488 1.7063-1.9238 4.5379-1.7646 6.9111-1.8956l-0.53806-0.64832c-1.6158-1.4916-3.687-2.3698-5.8734-2.3698l1.6886-1.8659c-0.17814-4.2887-0.0065-8.6081-0.4544-12.881-2.5563-1.9613-3.7444-5.2818-6.375-7.1712l-1.4823-0.78376 0.81225-0.24935c0.44674-0.13714 1.5612-0.07681 2.4766 0.1341l1.6644 0.38344-0.41251-0.77079c-0.43841-0.81918-5.7004-7.3347-14.049-6.0827-1.9125 0.2868-2.9101 1.1453-1.3308 1.1453 0.98748 0 3.7528 1.3542 3.7528 1.8377 0 0.56508-6.4138 0.25796-6.8343 0.67846-0.54179 0.54179 3.8438 2.8443 0.78163 2.8443-2.9487 0.09417-4.2739 2.5208-5.5473 4.7866 1.182-0.28897 5.3393-2.3581 3.8282 0.19769-1.6079 2.2956-0.70932 4.8536 3.3047 9.4076l2.4569 2.7874-1.7868-1.074c-1.5764-0.8819-8.847-6.1976-8.2786-4.306 0.24156 0.63534 0.24449 1.2568 0.06643 1.1552-7.5988-4.3372-6.8315-9.666-3.1557-15.22 0.51212-0.71921 0.80987-1.3077 0.66165-1.3077-0.54111 0-2.7376 1.539-4.417 3.0949l-1.7221 1.5954 0.3018-1.5635c0.79845-4.1364 2.5536-8.2682 6.1181-14.403l1.75-3.0117c-2.9732-5.5554-2.8243-17.875-1.3002-17.875 0.7739 0 5.0719 4.3801 6.1094 6.2261 0.56091 0.99801 0.90821 1.8146 0.77177 1.8146-0.13644 0-1.1698-0.70356-2.2963-1.5635-1.1265-0.8599-2.2377-1.5635-2.4692-1.5635-1.038 0 1.0765 6.1152 3.1264 9.0415l1.7006 2.4277c-0.91392 1.6473-1.6292 3.3705-2.1979 5.1648 3.265-1.7402 5.8901-4.416 8.5812-6.9089 0.32293-4.7227-2.4158-8.6875-5.2666-12.227-2.2061-2.632-6.6663-7.3257-10.418-7.3257-1.8341 3.1882-2.0155 6.6796-2.0935 10.274-0.09795 3.3168 0.025 7.1361 0.27324 8.4874 0.24823 1.3513 0.37149 2.5377 0.27391 2.6366-0.09758 0.09883-0.67114-0.90625-1.2746-2.2335-2.9191-6.4206-2.5922-15.03 0.82688-21.778 1.3909-2.7448 1.7896-2.8102 6.0602-0.99285 12.565 5.3469 18.667 16.979 19.623 16.708 5.1139-0.96461 10.356-1.1151 15.448 0.07301 0.69487 0.18335 1.2337-0.26944 2.4247-2.0375 4.5306-6.7259 16.437-16.051 21.713-16.051h1.1503l1.0731 2.3452c3.212 6.578 3.3844 14.13 1.9373 21.107s-4.4467 12.01 0.07375 18.292c2.0652 2.8698 2.8006 5.9631 2.9784 7.2601l0.29137 2.1258-1.471-1.2378c-1.7335-1.4586-2.1204-1.3212-1.2177 0.43259 2.4749 4.8083 4.9286 15.788 3.5282 15.788-1.1142-1.1896-2.0691-2.8485-3.1832-4.2089 0.66868 7.927 0.32672 16.168-4.6728 22.747l-1.1416 1.3401c-0.01133-2.1099-0.1364-10.498-1.4093-10.498-0.22533 0-0.40969 0.86234-0.40969 1.9163 0 5.3201-2.8329 11.228-8.2912 17.292-5.5746 6.1928-5.5703 7.5849-6.115 7.5905-0.50089-1.2028-0.33503-2.6928-0.33503-4.0128-5.2161 4.1307-11.363 7.5536-14.54 13.62l-1.1099 2.2335zm3.2939-32.309c1.2041 0.11483 1.6182 0.02305 1.305-0.28918-1.9103-0.53799-9.9375-1.297-8.1541 1.255 1.3791 1.9735 3.697-1.2664 6.8491-0.96578zm16.904-25.528c1.206-1.2478 1.85-2.6236 1.8444-3.3606l-0.01019-1.3401c-0.59334 1.0932-1.3228 2.039-2.2714 2.8384l-0.8318 0.51946v-0.67384c0-1.0755-0.77021-0.77879-1.0691 0.41189-0.38622 1.5388-5.2405 4.6476-5.5186 5.4925-0.15224 0.4626 6.6506-2.6399 7.8566-3.8877zm-4.7661-1.1964c0.4493-0.40661 0.8169-1.1165 0.8169-1.5775 0-1.0175-1.2074-1.5683-1.9062-0.86947-0.37689 0.37689-0.31581 0.50602 0.23936 0.50602 0.46103 0 0.65234 0.24244 0.50151 0.63552-0.3411 0.88888-1.5181 1.258-2.2018 0.69061-0.39892-0.33107-0.66185-0.33342-0.86315-0.0077-0.8511 1.3771 2.0042 1.8978 3.4134 0.62251zm-5.5556-5.8922c0.71976-0.89787 2.3978-2.2707 3.7289-3.0507 3.6765-2.1543 4.7805-3.1556 5.1042-4.6291 0.61984-2.8221-2.0326-5.0206-3.5329-6.0137 0.7662 1.6042 1.1751 3.2471 0.85694 5.0172l-0.3164 1.2367-1.9104-4.0203-0.29557 2.0535c-0.37827 2.628-1.2224 4.2271-3.3524 6.3501-1.7417 1.736-2.4384 1.6288-1.4722-0.22651l0.5363-1.0298-1.1824 1.0877c-1.6397 1.5084-2.3029 4.1718-1.6155 6.4886 0.93632 3.1558 1.5202 3.3814 1.8513 0.71537 0.20198-1.6263 0.69309-2.8475 1.6001-3.979zm5.6077 0.57992c1.422-0.66894 2.8747-1.6293 3.2283-2.1341 0.72377-1.0333 0.53274-1.5466-0.33086-0.88896-0.31304 0.23839-1.5146 0.78263-2.6702 1.2094-1.1557 0.42683-2.7134 1.4734-3.462 2.326-1.5763 1.7953-1.8413 3.0135-0.35584 1.636 0.5528-0.51264 2.1685-1.4794 3.5905-2.1483zm18.356-20.537c1.3769-2.8119 1.5147-4.029 0.27718-2.4469-1.077 1.3769-1.1045 1.1089-0.14314-1.3956 1.0976-2.8595 1.0208-11.797-0.12963-15.094-0.46419-1.3304-1.1928-2.6341-1.619-2.8971-1.1737-0.72417-3.4514 0.70925-7.7237 4.8608-4.0144 3.9009-7.1712 8.3799-7.6301 10.826-0.74397 5.3308 3.752 8.3319 7.8875 10.427l-1.3514-2.3946c-0.74327-1.317-1.3514-2.5067-1.3514-2.6438 0-0.13705 0.72502-0.38521 1.6112-0.55145 0.88613-0.16624 2.1425-0.50716 2.7919-0.75759l1.1807-0.45534c-1.9163-0.72891-5.626-1.315-6.2538-2.6334 0.49137-0.19529 1.5303-0.36921 2.3087-0.38648 2.7809-0.06169 3.0443-0.49237 1.0919-1.7849l-1.7955-1.1887c2.1805-3.5464 4.4868-7.8968 8.1651-9.9851 0.14318 0.13772 0.45076 1.5951 0.6835 3.2386 0.4569 3.2263 0.08122 7.0813-1.053 10.805-0.86296 2.8334-0.85254 2.9135 0.20349 1.5635 0.69143-0.88395 0.87561-0.95734 0.88347-0.35204 0.0088 0.67453-1.5065 5.7141-2.4563 8.1693-0.72301 1.869 3.2772-2.5845 4.4226-4.9237zm-44.357 36.009c0.08124-1.9743 1.1879-3.6131 2.1543-5.2622-2.6662-3.8065-5.1991-2.7704-6.8197-5.2437-0.43933-0.67051-1.4121-1.477-2.1617-1.7921-2.5049-1.3271 3.0318-2.117 4.3252-2.4582l1.853 0.897c2.8137 1.3621 5.0796 5.0592 5.0796 8.288 0 1.222-0.35197 1.8796-1.6354 3.0554-0.89948 0.82404-1.8882 2.0701-2.1972 2.7691l-0.56181 1.2709zm0.35185-10.019c0.69835-0.84146 0.12904-1.2389-0.87577-0.6114l-0.83802 0.52336-0.78895-0.82656c-0.57661-0.60409-0.63866-0.88228-0.23057-1.0336 0.87982-0.32619 0.65131-1.026-0.33503-1.026-0.68069 0-0.89341 0.2978-0.89341 1.2508 0 0.68792 0.24122 1.492 0.53604 1.7868 0.71974 0.71974 2.8078 0.68107 3.4257-0.06343z" stroke-width="1.396"/>
</svg>
